<svg xmlns="http://www.w3.org/2000/svg" viewBox="0 0 1200 240" width="100%" preserveAspectRatio="xMidYMid slice" role="img" aria-label="Anamika Kumari banner">
  <defs>
    <linearGradient id="bg" x1="0%" y1="0%" x2="100%" y2="100%">
      <stop offset="0%" stop-color="#8E2DE2"/>
      <stop offset="50%" stop-color="#5A2EE0"/>
      <stop offset="100%" stop-color="#4A00E0"/>
    </linearGradient>
    <radialGradient id="glow" cx="50%" cy="40%" r="60%">
      <stop offset="0%" stop-color="#ffffff" stop-opacity="0.18"/>
      <stop offset="100%" stop-color="#ffffff" stop-opacity="0"/>
    </radialGradient>
  </defs>
  <rect width="1200" height="240" fill="url(#bg)"/>
  <rect width="1200" height="240" fill="url(#glow)"/>
  <g fill="#ffffff" opacity="0.08">
    <circle cx="120" cy="60" r="3"/>
    <circle cx="220" cy="180" r="2"/>
    <circle cx="340" cy="40" r="2"/>
    <circle cx="980" cy="70" r="3"/>
    <circle cx="1080" cy="190" r="2"/>
    <circle cx="900" cy="30" r="2"/>
    <circle cx="1140" cy="120" r="3"/>
    <circle cx="60" cy="160" r="2"/>
  </g>
  <path d="M0,205 C200,235 400,175 600,205 C800,230 1000,180 1200,210 L1200,240 L0,240 Z" fill="#ffffff" opacity="0.10"/>
  <path d="M0,220 C200,200 400,235 600,215 C800,195 1000,230 1200,205 L1200,240 L0,240 Z" fill="#ffffff" opacity="0.07"/>
  <text x="600" y="115" text-anchor="middle" fill="#ffffff" font-family="Segoe UI, Helvetica Neue, Arial, sans-serif" font-size="52" font-weight="700">Hi there, I am Anamika</text>
  <text x="600" y="165" text-anchor="middle" fill="#ffffff" opacity="0.92" font-family="Segoe UI, Helvetica Neue, Arial, sans-serif" font-size="18" font-weight="500" letter-spacing="2">PROGRAMMER ANALYST AT COGNIZANT  •  AZURE CLOUD AND DATA ENTHUSIAST</text>
</svg>
